<svg width="16" height="16" viewBox="0 0 16 16" fill="none" xmlns="http://www.w3.org/2000/svg">
<g clip-path="url(#clip0)">
<path d="M3.51066 6.51C3.82258 5.5663 4.42457 4.74521 5.23074 4.16387C6.03691 3.58252 7.00608 3.27062 7.99999 3.27267C9.12666 3.27267 10.1453 3.67267 10.9453 4.32733L13.2733 2C11.8547 0.763333 10.0367 0 7.99999 0C4.84666 0 2.13199 1.79867 0.82666 4.43333L3.51066 6.51Z" fill="#EA4335"/>
<path d="M10.6933 12.0087C9.96665 12.4773 9.04398 12.7273 7.99998 12.7273C7.01003 12.7294 6.04451 12.4199 5.24014 11.8429C4.43576 11.2658 3.83327 10.4504 3.51798 9.51199L0.824646 11.5567C1.48548 12.8942 2.50816 14.0196 3.77653 14.805C5.0449 15.5905 6.50812 16.0045 7.99998 16C9.95531 16 11.8233 15.3047 13.2226 14L10.694 12.0087H10.6933Z" fill="#34A853"/>
<path d="M13.2227 14C14.686 12.6347 15.636 10.6027 15.636 8.00002C15.636 7.52668 15.5633 7.01802 15.4547 6.54535H8V9.63668H12.2907C12.0793 10.676 11.5107 11.4807 10.694 12.0087L13.2227 14Z" fill="#4A90E2"/>
<path d="M3.51796 9.51202C3.35486 9.02462 3.272 8.51397 3.27262 8.00002C3.27262 7.47868 3.35596 6.97802 3.51062 6.51002L0.826622 4.43335C0.277541 5.54181 -0.0055087 6.76303 -4.4434e-05 8.00002C-4.4434e-05 9.28002 0.296622 10.4867 0.824622 11.5567L3.51796 9.51202Z" fill="#FBBC05"/>
</g>
<defs>
<clipPath id="clip0">
<rect width="16" height="16" fill="white"/>
</clipPath>
</defs>
</svg>
